# xmcd CD database file
#
# Track frame offsets:
#	150
#	30672
#	60782
#	86602
#	119767
#	159310
#	191272
#	219052
#
# Disc length: 3210 seconds
#
# Revision: 0
# Processed by: cddbd v1.5.1PL2 Copyright (c) Steve Scherf et al.
# Submitted via: CDex 1.51
#
DISCID=590c8808
DTITLE=Criss-Cross - Asphalt und Neon
DYEAR=1900
DGENRE=Jazz
TTITLE0=Gut drauf
TTITLE1=Crazy Daisy
TTITLE2=Feeling Ultra
TTITLE3=Asphalt and Neon
TTITLE4=Nachtcocktail
TTITLE5=Hirn mit Ei
TTITLE6=Vollmond
TTITLE7=Good Vibrations
EXTD=
EXTT0=
EXTT1=
EXTT2=
EXTT3=
EXTT4=
EXTT5=
EXTT6=
EXTT7=
PLAYORDER=
